<?xml version="1.0" encoding="UTF-8" standalone="no"?>
<!-- Created with Inkscape (http://www.inkscape.org/) -->

<svg
   xmlns:dc="http://purl.org/dc/elements/1.1/"
   xmlns:cc="http://creativecommons.org/ns#"
   xmlns:rdf="http://www.w3.org/1999/02/22-rdf-syntax-ns#"
   xmlns:svg="http://www.w3.org/2000/svg"
   xmlns="http://www.w3.org/2000/svg"
   xmlns:sodipodi="http://sodipodi.sourceforge.net/DTD/sodipodi-0.dtd"
   xmlns:inkscape="http://www.inkscape.org/namespaces/inkscape"
   width="101.11207mm"
   height="133.56184mm"
   viewBox="0 0 358.27111 473.25063"
   id="svg2"
   version="1.1"
   inkscape:version="0.91 r"
   sodipodi:docname="kawaii_rocket.svg">
  <defs
     id="defs4">
    <inkscape:path-effect
       is_visible="true"
       id="path-effect4278"
       effect="spiro" />
    <inkscape:path-effect
       effect="spiro"
       id="path-effect4274"
       is_visible="true" />
    <inkscape:path-effect
       is_visible="true"
       id="path-effect4270"
       effect="spiro" />
    <inkscape:path-effect
       effect="spiro"
       id="path-effect4264"
       is_visible="true" />
    <inkscape:path-effect
       effect="spiro"
       id="path-effect4252"
       is_visible="true" />
    <inkscape:path-effect
       effect="spiro"
       id="path-effect4201"
       is_visible="true" />
    <inkscape:path-effect
       effect="spiro"
       id="path-effect4197"
       is_visible="true" />
  </defs>
  <sodipodi:namedview
     id="base"
     pagecolor="#ffffff"
     bordercolor="#666666"
     borderopacity="1.0"
     inkscape:pageopacity="0.0"
     inkscape:pageshadow="2"
     inkscape:zoom="1.2306197"
     inkscape:cx="-172.7679"
     inkscape:cy="160.34645"
     inkscape:document-units="px"
     inkscape:current-layer="layer1"
     showgrid="false"
     inkscape:window-width="1920"
     inkscape:window-height="1014"
     inkscape:window-x="0"
     inkscape:window-y="27"
     inkscape:window-maximized="1"
     fit-margin-top="20"
     fit-margin-left="20"
     fit-margin-right="20"
     fit-margin-bottom="20"
     showguides="false" />
  <metadata
     id="metadata7">
    <rdf:RDF>
      <cc:Work
         rdf:about="">
        <dc:format>image/svg+xml</dc:format>
        <dc:type
           rdf:resource="http://purl.org/dc/dcmitype/StillImage" />
        <dc:title></dc:title>
      </cc:Work>
    </rdf:RDF>
  </metadata>
  <g
     inkscape:label="Layer 1"
     inkscape:groupmode="layer"
     id="layer1"
     transform="translate(-335.19861,-75.08504)">
    <path
       style="fill:#c877cb;fill-opacity:1;fill-rule:evenodd;stroke:#c877cb;stroke-width:4;stroke-linecap:round;stroke-linejoin:round;stroke-miterlimit:4;stroke-dasharray:none;stroke-opacity:1"
       d="m 522.88061,147.95113 c -21.27242,14.9296 -39.09936,34.73731 -51.71347,57.4594 -27.08683,48.79214 -28.4194,110.97866 -3.44756,160.88635 -14.92925,1.52864 -29.29754,8.097 -40.22159,18.38701 -6.94897,6.54564 -12.53593,14.59483 -15.86068,23.54355 -3.32476,8.94872 -4.34365,18.7981 -2.52633,28.16991 2.91791,15.04749 13.42794,28.42048 27.35943,34.81224 -3.29408,-13.81266 -1.98616,-28.68187 3.66865,-41.70737 4.4173,-10.17498 11.77072,-19.46803 21.83458,-24.13295 5.90612,-2.73767 12.58643,-3.78045 19.04593,-2.97301 6.45951,0.80744 12.67758,3.46251 17.72809,7.56977 l 36.77402,0 c 4.5771,-4.86393 10.80288,-8.14786 17.4017,-9.17893 6.59883,-1.03107 13.52964,0.19715 19.37232,3.43299 4.52401,2.50552 8.36129,6.15677 11.39543,10.34464 3.03413,4.18788 5.28572,8.90627 6.99158,13.78831 5.18505,14.83917 5.2848,31.40357 0.27884,46.30411 10.59727,-4.55568 19.74955,-12.40805 25.86309,-22.18972 6.11354,-9.78167 9.1613,-21.44936 8.61255,-32.97131 -0.6769,-14.21257 -6.89805,-28.08881 -17.05876,-38.04949 -10.16071,-9.96068 -24.1579,-15.90473 -38.38111,-16.29894 23.50983,-49.39407 23.07399,-109.5398 -1.14919,-158.58797 -11.07257,-22.42024 -26.83138,-42.51272 -45.96752,-58.60859 z"
       id="path4199"
       inkscape:path-effect="#path-effect4201"
       inkscape:original-d="m 522.88061,147.95113 c 0,0 -37.0925,20.54498 -51.71347,57.4594 -14.62097,36.91442 -3.44756,160.88635 -3.44756,160.88635 0,0 -29.06132,6.20899 -40.22159,18.38701 -11.16027,12.17802 -21.07949,36.12611 -18.38701,51.71346 2.69248,15.58735 27.35943,34.81224 27.35943,34.81224 0,0 -2.38762,-28.70753 3.66865,-41.70737 6.05627,-12.99984 15.6886,-23.95456 21.83458,-24.13295 6.14598,-0.17839 24.53429,5.70946 36.77402,4.59676 l 36.77402,0 c 0,0 28.0376,-10.29254 36.77402,-5.74594 8.73642,4.5466 14.84757,11.67952 18.38701,24.13295 3.53944,12.45343 0.27884,46.30411 0.27884,46.30411 0,0 36.33374,-38.23465 34.47564,-55.16103 -1.85809,-16.92637 -36.49077,-35.42228 -55.43987,-54.34843 0,0 11.6653,-121.91629 -1.14919,-158.58797 -12.81449,-36.67168 -45.96752,-58.60859 -45.96752,-58.60859 z"
       inkscape:connector-curvature="0"
       sodipodi:nodetypes="czczzczzcczzczczc" />
    <g
       id="g4219"
       transform="translate(311.42999,-10.342693)">
      <ellipse
         style="fill:#000000;fill-opacity:1;stroke:none;stroke-width:2;stroke-linecap:round;stroke-linejoin:round;stroke-miterlimit:4;stroke-dasharray:none;stroke-dashoffset:0;stroke-opacity:1"
         id="ellipse4221"
         cx="172.5"
         cy="266.50507"
         rx="7.5"
         ry="7.1428571" />
      <ellipse
         ry="7.1428571"
         rx="7.5"
         cy="266.50507"
         cx="244.5"
         id="ellipse4223"
         style="fill:#000000;fill-opacity:1;stroke:none;stroke-width:2;stroke-linecap:round;stroke-linejoin:round;stroke-miterlimit:4;stroke-dasharray:none;stroke-dashoffset:0;stroke-opacity:1" />
      <path
         style="fill:none;fill-rule:evenodd;stroke:#000000;stroke-width:3;stroke-linecap:round;stroke-linejoin:round;stroke-miterlimit:4;stroke-dasharray:none;stroke-opacity:1"
         d="m 225.57524,278.70576 c -1.42065,14.7127 -32.43016,15.2873 -34.28572,0"
         id="path4225"
         inkscape:connector-curvature="0"
         sodipodi:nodetypes="cc" />
      <ellipse
         style="fill:#ffaaaa;fill-opacity:1;stroke:none;stroke-width:3;stroke-linecap:round;stroke-linejoin:round;stroke-miterlimit:4;stroke-dasharray:none;stroke-dashoffset:0;stroke-opacity:1"
         id="ellipse4227"
         cx="158.15701"
         cy="284.28464"
         rx="5.8895893"
         ry="3.016619" />
      <ellipse
         ry="3.016619"
         rx="5.8895893"
         cy="284.28464"
         cx="252.15701"
         id="ellipse4229"
         style="fill:#ffaaaa;fill-opacity:1;stroke:none;stroke-width:3;stroke-linecap:round;stroke-linejoin:round;stroke-miterlimit:4;stroke-dasharray:none;stroke-dashoffset:0;stroke-opacity:1" />
    </g>
    <path
       style="fill:#f9ff98;fill-rule:evenodd;stroke:#f9ff98;stroke-width:4;stroke-linecap:round;stroke-linejoin:round;stroke-opacity:1;fill-opacity:1;stroke-miterlimit:4;stroke-dasharray:none"
       d="m 496.90576,411.81909 c -7.62978,12.17612 -12.14506,26.28638 -13.00158,40.62994 -1.68542,28.22445 11.55757,56.91758 34.12915,73.94649 20.31692,-19.15965 31.37496,-47.72624 29.25355,-75.57169 -1.01678,-13.34624 -4.92446,-26.46487 -11.37638,-38.19214 l -39.00474,-0.8126 z"
       id="path4272"
       inkscape:path-effect="#path-effect4274"
       inkscape:original-d="m 496.90576,411.81909 c 0,0 -14.26978,19.98519 -13.00158,40.62994 1.2682,20.64475 34.12915,73.94649 34.12915,73.94649 0,0 28.44957,-55.43997 29.25355,-75.57169 0.80398,-20.13172 -11.37638,-38.19214 -11.37638,-38.19214 z"
       inkscape:connector-curvature="0"
       sodipodi:nodetypes="czczcc" />
    <path
       sodipodi:nodetypes="czczcc"
       inkscape:connector-curvature="0"
       inkscape:original-d="m 496.90576,411.81909 c 0,0 -0.4556,2.10802 0.8126,22.75277 1.2682,20.64475 20.31497,30.06616 20.31497,30.06616 0,0 16.26059,-7.49665 17.06457,-27.62837 0.80398,-20.13172 0.8126,-24.37796 0.8126,-24.37796 z"
       inkscape:path-effect="#path-effect4278"
       id="path4276"
       d="m 496.90576,411.81909 c -1.35408,7.52633 -1.07494,15.34221 0.8126,22.75277 3.04546,11.9566 10.35815,22.77939 20.31497,30.06616 8.26141,-7.24183 14.28785,-16.99894 17.06457,-27.62837 2.07197,-7.93163 2.35178,-16.32596 0.8126,-24.37796 l -39.00474,-0.8126 z"
       style="fill:#ffec98;fill-opacity:1;fill-rule:evenodd;stroke:#ffec98;stroke-width:4;stroke-linecap:round;stroke-linejoin:round;stroke-miterlimit:4;stroke-dasharray:none;stroke-opacity:1" />
    <rect
       style="fill:#999999;fill-opacity:1;stroke:none;stroke-width:4;stroke-linecap:round;stroke-linejoin:round;stroke-miterlimit:4;stroke-dasharray:none;stroke-dashoffset:0;stroke-opacity:1"
       id="rect4266"
       width="52.006321"
       height="16.251974"
       x="490.84277"
       y="402.94351"
       ry="8.1259871" />
  </g>
</svg>
